<?xml version="1.0" standalone="no"?>
<!DOCTYPE svg PUBLIC "-//W3C//DTD SVG 20010904//EN"
 "http://www.w3.org/TR/2001/REC-SVG-20010904/DTD/svg10.dtd">
<svg version="1.0" xmlns="http://www.w3.org/2000/svg"
 width="1184.000000pt" height="494.000000pt" viewBox="0 0 1184.000000 494.000000"
 preserveAspectRatio="xMidYMid meet">

<g transform="translate(0.000000,494.000000) scale(0.100000,-0.100000)"
fill="#000000" stroke="none">
<path d="M1910 2045 l0 -265 120 0 120 0 0 265 0 265 -120 0 -120 0 0 -265z"/>
<path d="M2830 2035 l0 -255 150 0 150 0 0 255 0 255 -150 0 -150 0 0 -255z"/>
<path d="M3790 1940 l0 -140 80 0 80 0 0 140 0 140 -80 0 -80 0 0 -140z"/>
</g>
</svg>
